<svg width="512" height="512" viewBox="0 0 512 512" fill="none" xmlns="http://www.w3.org/2000/svg">
<g clip-path="url(#clip0_1_2)">
<rect width="512" height="512" fill="#F0DB4F"/>
<path d="M206.182 424.362V263.391H262.578V424.362C262.578 440.046 258.979 453.635 251.782 465.129C244.692 476.623 235.024 485.539 222.778 491.877C210.64 498.107 196.997 501.223 181.851 501.223C166.167 501.223 152.202 498.591 139.956 493.327C127.817 488.063 118.257 479.953 111.274 468.996C104.399 458.039 100.962 444.074 100.962 427.102H157.681C157.681 435.051 158.594 441.281 160.42 445.793C162.246 450.197 164.932 453.312 168.477 455.139C172.129 456.857 176.587 457.717 181.851 457.717C187.007 457.717 191.357 456.428 194.902 453.85C198.555 451.164 201.348 447.351 203.281 442.409C205.215 437.36 206.182 431.345 206.182 424.362ZM394.385 312.697L337.183 498H276.436L362.642 263.391H401.152L394.385 312.697ZM441.758 498L384.395 312.697L376.982 263.391H415.977L502.666 498H441.758ZM439.502 410.505V454.172H319.136V410.505H439.502Z" fill="#323330"/>
</g>
<defs>
<clipPath id="clip0_1_2">
<rect width="512" height="512" fill="white"/>
</clipPath>
</defs>
</svg>
